<?xml version="1.0" standalone="no"?>
<!DOCTYPE svg PUBLIC "-//W3C//DTD SVG 20010904//EN"
 "http://www.w3.org/TR/2001/REC-SVG-20010904/DTD/svg10.dtd">
<svg version="1.0" xmlns="http://www.w3.org/2000/svg"
 width="1024.000000pt" height="1024.000000pt" viewBox="0 0 1024.000000 1024.000000"
 preserveAspectRatio="xMidYMid meet">

<g transform="translate(0.000000,1024.000000) scale(0.100000,-0.100000)"
fill="#000000" stroke="none">
<path d="M4850 9464 c-252 -40 -495 -124 -803 -280 -210 -106 -276 -133 -392
-160 -114 -26 -277 -25 -370 3 -139 42 -185 38 -226 -18 -44 -62 -33 -213 22
-308 l20 -34 -58 7 c-188 21 -187 21 -224 -12 -33 -30 -34 -32 -33 -109 0 -71
4 -86 42 -163 23 -47 48 -92 54 -101 10 -14 3 -27 -41 -75 -75 -85 -144 -201
-184 -312 -97 -271 -107 -469 -52 -1027 3 -27 10 -99 15 -160 8 -86 52 -466
63 -544 1 -9 -18 -20 -54 -31 -153 -46 -279 -152 -348 -291 -54 -111 -71 -181
-78 -319 -6 -141 13 -270 62 -418 58 -171 129 -287 260 -417 83 -83 139 -122
292 -206 28 -15 30 -22 37 -90 16 -177 75 -445 139 -634 127 -369 343 -704
617 -956 88 -81 90 -83 90 -128 0 -72 -28 -248 -44 -279 -33 -64 -112 -111
-331 -197 -633 -249 -888 -356 -1120 -472 -498 -248 -807 -496 -1015 -813 -63
-96 -143 -248 -182 -343 -51 -128 -117 -384 -133 -519 l-7 -58 4216 0 c3646 0
4216 2 4216 14 0 41 -25 185 -50 291 -103 433 -320 781 -643 1033 -338 263
-679 434 -1631 819 -423 170 -450 185 -480 266 -12 32 -46 253 -46 297 0 4 45
47 101 96 268 237 484 577 613 964 57 171 106 386 126 550 20 171 14 155 83
191 145 73 275 188 361 318 220 335 266 756 113 1046 -60 112 -184 210 -319
251 -38 12 -58 23 -58 34 0 8 9 83 19 165 46 355 65 613 65 900 1 305 -8 409
-50 552 -73 254 -216 453 -424 592 -144 97 -296 158 -462 186 -27 4 -38 11
-38 24 0 24 -43 147 -70 201 -128 253 -404 469 -756 590 -211 73 -326 92 -584
96 -166 2 -250 -1 -320 -12z m1665 -1489 c63 -45 169 -157 222 -235 201 -297
328 -777 352 -1328 3 -83 4 -152 1 -152 -3 0 -53 16 -110 36 -414 141 -863
180 -1188 104 -139 -33 -255 -92 -337 -171 -38 -36 -43 -38 -75 -29 -44 12
-551 13 -604 0 -37 -8 -42 -6 -85 31 -101 89 -218 143 -393 180 -87 19 -136
23 -313 23 -294 1 -525 -36 -833 -134 -51 -17 -95 -30 -99 -30 -7 0 3 205 18
340 38 357 114 665 225 912 36 79 140 258 150 258 3 0 17 -6 32 -14 41 -21
218 -82 302 -105 750 -203 1960 -45 2529 330 99 65 90 66 206 -16z m-2405
-1705 c279 -30 470 -144 521 -312 42 -136 11 -376 -67 -538 -48 -97 -169 -220
-264 -267 -140 -70 -328 -92 -498 -57 -333 67 -542 377 -542 804 0 132 15 177
71 225 130 110 483 176 779 145z m2365 -20 c384 -79 465 -174 425 -500 -44
-356 -219 -576 -520 -651 -71 -18 -104 -21 -220 -17 -117 4 -146 9 -220 34
-165 58 -279 160 -354 317 -63 130 -86 233 -86 379 0 94 4 128 21 173 55 147
228 250 474 284 110 15 364 5 480 -19z m-3385 -450 c35 -444 229 -726 580
-843 330 -109 742 -12 942 224 135 159 193 337 207 640 5 92 12 172 16 178 5
9 59 12 204 11 108 -1 217 -4 244 -7 l47 -5 0 -111 c1 -185 16 -300 56 -425
78 -243 241 -412 477 -492 113 -39 200 -52 342 -52 313 0 562 123 713 355 100
153 149 328 167 603 6 91 9 101 25 97 45 -12 35 -558 -14 -825 -85 -453 -305
-799 -596 -931 -118 -54 -122 -54 -144 -2 -23 57 -102 159 -158 206 -176 146
-427 229 -696 229 l-105 0 61 58 c80 75 93 131 42 182 -36 36 -73 26 -145 -39
-87 -79 -161 -105 -280 -99 -101 5 -174 38 -246 109 -51 51 -77 59 -122 38
-27 -12 -47 -47 -47 -83 0 -26 41 -91 73 -117 12 -9 33 -26 47 -37 l24 -20
-59 10 c-33 6 -105 7 -161 4 -368 -21 -668 -187 -780 -431 -14 -30 -29 -57
-34 -60 -15 -9 -204 93 -268 145 -178 145 -324 384 -402 653 -64 223 -84 401
-84 757 l-1 285 30 5 c29 5 30 4 32 -35 2 -22 8 -101 13 -175z m-320 140 c19
-6 41 -14 48 -19 11 -6 14 -103 18 -482 2 -261 6 -531 9 -601 4 -92 2 -128 -6
-128 -24 0 -123 65 -181 118 -102 95 -187 239 -234 399 -34 117 -44 315 -20
416 39 166 131 270 266 297 51 11 61 11 100 0z m4789 -28 c196 -97 248 -436
118 -782 -19 -49 -49 -115 -68 -147 -44 -74 -180 -210 -247 -246 l-52 -28 2
602 3 603 50 18 c62 22 120 16 194 -20z m-1946 -1772 c-75 -71 -178 -125 -301
-157 -82 -21 -119 -25 -237 -25 -172 0 -280 23 -397 84 -70 36 -188 128 -188
147 0 3 266 6 591 6 l591 0 -59 -55z m-1331 -28 c41 -61 138 -154 217 -206
120 -80 255 -127 416 -146 382 -43 728 73 926 312 29 35 58 64 66 66 21 5 54
-82 60 -161 15 -200 -114 -425 -290 -508 -129 -60 -233 -47 -306 38 l-38 45
-139 -12 c-128 -12 -309 -9 -382 6 -25 5 -32 1 -55 -36 -53 -79 -114 -96 -224
-62 -204 64 -354 276 -355 502 -1 73 3 96 25 143 14 31 32 57 40 57 8 0 26
-17 39 -38z m2061 -1776 c16 -35 45 -71 89 -109 l65 -58 -8 -52 c-14 -98 -72
-231 -144 -327 -84 -114 -260 -257 -406 -331 -280 -141 -663 -208 -1032 -181
-197 15 -319 39 -497 98 -270 90 -493 244 -620 429 -41 59 -104 196 -119 257
-19 81 -15 104 24 128 19 11 54 43 78 70 52 58 75 127 85 262 l7 87 60 -40
c138 -91 380 -197 558 -244 323 -86 682 -98 1002 -34 247 49 556 172 761 302
l39 24 17 -115 c10 -66 28 -136 41 -166z"/>
<path d="M3895 6799 c-196 -27 -337 -93 -371 -174 -17 -41 -3 -103 28 -129 25
-20 44 -19 168 11 118 28 470 25 604 -5 96 -21 100 -22 135 -5 106 53 81 172
-51 239 -110 56 -352 85 -513 63z"/>
<path d="M5995 6803 c-16 -2 -71 -12 -121 -24 -189 -42 -283 -144 -229 -248
25 -50 60 -56 167 -30 84 21 116 24 318 24 214 0 230 -1 332 -28 67 -17 117
-25 133 -21 30 8 55 54 55 103 0 35 -45 91 -102 127 -112 71 -380 118 -553 97z"/>
<path d="M4002 5989 c-92 -27 -153 -154 -133 -276 12 -73 28 -108 72 -151 86
-84 219 -58 285 54 21 35 28 63 32 118 6 92 -10 147 -56 198 -57 64 -117 81
-200 57z"/>
<path d="M6019 5977 c-88 -47 -129 -170 -99 -296 31 -131 148 -201 257 -156
52 22 72 42 99 100 26 55 33 168 14 237 -32 113 -166 170 -271 115z"/>
</g>
</svg>
